<?xml version="1.0" encoding="UTF-8"?>
<svg version="1.0" xmlns="http://www.w3.org/2000/svg"
 width="1413.000000pt" height="1107.000000pt" viewBox="0 0 1413.000000 1107.000000"
 preserveAspectRatio="xMidYMid meet">
<g transform="translate(0.000000,1107.000000) scale(0.100000,-0.100000)"
fill="#000000" stroke="none">
<path d="M6905 8781 c-33 -4 -73 -13 -90 -19 -16 -6 -57 -13 -89 -16 -32 -4
-86 -17 -120 -30 -34 -13 -82 -31 -108 -40 -26 -10 -50 -22 -54 -27 -3 -5 -20
-15 -37 -23 -18 -7 -52 -29 -77 -48 -27 -20 -84 -47 -143 -66 l-97 -33 -323 4
c-191 2 -344 9 -377 16 -80 16 -267 40 -323 41 -26 0 -63 6 -81 14 -18 7 -57
17 -87 21 -86 10 -202 33 -232 44 -16 6 -50 11 -76 11 -27 0 -92 14 -146 30
-54 17 -115 30 -137 30 -21 0 -66 9 -99 20 -37 13 -111 25 -192 31 -73 5 -153
17 -178 24 -66 21 -437 21 -494 0 -22 -8 -59 -14 -82 -15 -51 0 -166 -26 -204
-46 -15 -8 -38 -14 -51 -14 -13 0 -41 -11 -63 -24 -22 -13 -60 -34 -85 -47
-62 -31 -152 -112 -284 -255 -101 -109 -140 -160 -256 -334 -79 -118 -186
-349 -200 -432 -5 -29 -16 -70 -25 -91 -10 -24 -18 -81 -21 -150 -6 -128 6
-167 63 -200 28 -16 35 -16 65 -4 31 13 35 20 62 118 49 178 101 273 207 379
90 89 148 126 348 219 30 14 79 16 340 14 197 -1 322 -6 351 -13 48 -13 154
-24 390 -41 80 -5 159 -15 175 -21 42 -16 610 -23 690 -8 130 24 163 29 255
40 52 6 113 17 135 24 22 8 72 19 110 26 39 7 90 21 115 30 25 10 68 21 95 23
28 3 75 17 105 31 30 14 69 26 85 26 17 0 53 11 82 24 68 32 123 38 123 14 0
-21 -674 -687 -1210 -1197 -138 -132 -274 -262 -697 -669 -133 -129 -262 -249
-287 -268 -25 -19 -49 -40 -53 -47 -9 -14 -583 -555 -662 -624 -87 -76 -177
-156 -256 -228 -49 -45 -112 -102 -140 -126 -27 -24 -59 -54 -70 -66 -11 -13
-25 -23 -29 -23 -5 0 -33 -21 -61 -47 -29 -27 -70 -61 -91 -78 -21 -16 -70
-59 -110 -95 -39 -36 -95 -83 -123 -105 -65 -50 -193 -156 -206 -170 -5 -6
-23 -20 -39 -31 -49 -33 -81 -57 -157 -119 -83 -68 -257 -200 -342 -260 -32
-22 -97 -68 -145 -103 -48 -34 -94 -66 -102 -70 -8 -4 -48 -29 -88 -57 -40
-27 -81 -54 -90 -60 -148 -87 -262 -199 -314 -307 -23 -48 -31 -82 -35 -145
-7 -99 6 -155 51 -226 43 -66 66 -87 140 -126 49 -26 70 -31 127 -31 61 0 80
5 166 46 93 43 103 51 252 203 86 86 181 186 211 222 30 35 107 116 171 179
101 100 126 119 192 148 69 29 84 32 179 32 93 0 114 -4 199 -34 52 -19 130
-51 174 -73 44 -22 114 -54 155 -72 41 -18 92 -42 112 -52 20 -10 42 -19 47
-19 11 0 167 -70 213 -95 14 -8 32 -15 40 -15 8 0 42 -13 76 -30 34 -16 71
-30 81 -30 10 0 24 -7 31 -15 6 -8 22 -17 33 -21 12 -3 99 -44 194 -90 94 -46
178 -84 187 -84 8 0 32 -9 53 -20 21 -10 65 -26 97 -35 33 -8 64 -19 70 -25 5
-5 23 -10 38 -10 16 0 70 -13 120 -30 52 -17 112 -30 141 -30 27 0 80 -9 117
-20 100 -30 228 -40 518 -40 288 0 429 11 506 41 28 10 66 19 85 19 38 0 157
43 266 97 71 35 78 39 150 83 22 14 45 27 52 30 18 8 130 108 213 190 89 89
131 151 206 301 50 100 57 121 65 203 12 122 2 258 -24 321 -45 111 -177 252
-292 313 -66 35 -235 85 -267 78 -31 -6 -98 -67 -98 -90 0 -8 15 -34 34 -59
48 -63 53 -74 60 -147 15 -145 -17 -275 -91 -372 -27 -35 -114 -108 -129 -108
-4 0 -36 -13 -71 -30 -34 -16 -68 -30 -73 -30 -6 0 -21 -6 -33 -14 -12 -7 -47
-17 -77 -20 -70 -9 -182 -36 -194 -47 -13 -12 -785 -11 -838 0 -24 5 -63 14
-88 20 -25 6 -103 16 -175 21 -71 6 -151 17 -176 25 -25 8 -97 22 -160 30 -63
9 -134 22 -158 30 -25 8 -61 15 -80 15 -20 0 -83 14 -141 30 -58 17 -128 30
-155 30 -30 0 -60 7 -73 16 -12 8 -69 23 -125 33 -57 10 -112 23 -122 29 -11
5 -42 13 -70 17 -27 4 -79 18 -114 31 -35 13 -75 24 -90 24 -14 0 -57 14 -96
30 -38 17 -77 30 -85 30 -27 0 -40 20 -29 47 8 23 515 536 609 617 25 21 295
286 600 589 305 302 564 555 575 563 11 8 97 89 191 181 94 93 191 186 216
208 25 22 149 139 275 260 247 237 353 338 484 456 46 43 184 170 305 283 122
114 235 216 250 228 29 23 334 299 429 389 28 26 66 60 85 75 31 25 92 80 311
278 181 164 196 177 264 230 28 22 64 54 81 70 17 17 66 63 110 101 43 39 93
84 110 100 18 17 51 43 73 59 61 45 67 91 14 115 -33 15 -253 23 -338 12z"/>
<path d="M10594 8046 c-16 -7 -65 -20 -109 -30 -44 -9 -92 -24 -107 -32 -14
-8 -37 -14 -50 -14 -12 0 -54 -14 -93 -30 -38 -17 -76 -30 -85 -31 -8 0 -64
-26 -124 -57 -89 -46 -118 -67 -153 -110 -24 -29 -43 -63 -43 -76 0 -13 -11
-48 -24 -77 -13 -30 -27 -70 -30 -89 -9 -42 -39 -125 -72 -198 -13 -29 -24
-63 -24 -75 0 -12 -11 -43 -25 -69 -13 -25 -27 -66 -31 -90 -4 -23 -12 -50
-19 -58 -7 -8 -20 -40 -30 -70 -10 -30 -22 -66 -28 -80 -14 -33 -38 -95 -121
-315 -15 -38 -33 -84 -41 -102 -8 -17 -15 -36 -15 -43 0 -11 -36 -98 -82 -199
-11 -25 -22 -60 -25 -78 -3 -18 -12 -38 -19 -44 -8 -6 -18 -28 -24 -49 -6 -21
-16 -40 -23 -42 -6 -2 -358 0 -782 4 -687 6 -925 14 -990 31 -11 3 -68 11
-126 18 -98 11 -108 10 -150 -8 -24 -11 -65 -39 -91 -62 -25 -22 -50 -41 -55
-41 -10 0 -95 -92 -180 -195 -36 -44 -69 -82 -73 -85 -23 -16 -71 -113 -68
-137 6 -52 95 -68 215 -38 90 22 572 35 1373 35 603 1 716 -1 724 -13 6 -9 0
-32 -16 -68 -14 -30 -29 -65 -33 -79 -4 -14 -15 -43 -25 -65 -9 -22 -32 -74
-50 -115 -18 -41 -46 -103 -61 -137 -16 -35 -29 -68 -29 -75 0 -7 -7 -22 -15
-32 -8 -11 -15 -28 -15 -39 0 -10 -11 -33 -24 -50 -13 -18 -27 -43 -31 -57 -7
-25 -14 -41 -79 -183 -20 -42 -36 -80 -36 -84 0 -4 -9 -27 -21 -52 -30 -65
-72 -156 -107 -231 -133 -285 -182 -396 -182 -413 0 -9 -4 -18 -9 -21 -5 -3
-39 -68 -76 -143 -111 -228 -133 -272 -150 -295 -8 -13 -15 -28 -15 -35 0 -6
-14 -34 -31 -61 -60 -97 -23 -154 77 -118 27 10 76 22 109 26 33 5 91 20 128
34 37 14 77 26 87 26 17 0 125 46 170 71 8 5 22 12 30 15 20 7 89 41 118 58
45 26 102 90 102 113 0 13 9 41 19 61 11 21 25 67 31 102 7 36 18 76 25 90 16
30 63 171 74 220 4 19 17 58 29 85 12 28 26 68 31 90 13 49 57 179 76 220 22
49 75 191 75 202 0 6 11 30 24 54 13 24 27 55 31 69 13 47 68 181 124 303 17
37 31 73 31 80 0 6 13 37 28 68 16 30 32 64 35 75 4 10 11 26 16 34 14 22 71
145 71 154 0 4 14 32 32 61 l32 54 315 0 c174 0 424 -4 556 -9 132 -6 292 -12
355 -14 63 -2 131 -9 150 -15 21 -7 178 -14 397 -18 l362 -6 38 25 c96 64 320
290 377 382 56 89 69 134 44 153 -8 5 -131 6 -303 1 -467 -13 -2059 -25 -2071
-16 -8 6 -3 29 18 81 28 69 41 98 93 212 52 111 84 183 106 240 13 33 34 76
46 95 13 19 23 40 23 47 0 7 11 34 24 61 48 94 146 308 146 318 0 7 20 51 71
159 59 124 117 253 149 330 18 44 52 121 75 170 83 175 125 275 125 299 0 41
-47 62 -96 42z"/>
</g>
</svg>
